<svg xmlns="http://www.w3.org/2000/svg" xmlns:xlink="http://www.w3.org/1999/xlink" width="466.368" height="314.364" viewBox="0 0 466.368 314.364"><defs><clipPath id="a"><rect width="466.368" height="314.364" fill="none"/></clipPath><clipPath id="b"><rect width="21.408" height="21.408" rx="9.468" transform="translate(165.963 56.341)" fill="none"/></clipPath><radialGradient id="c" cx="0.5" cy="0.5" r="0.5" gradientTransform="matrix(1, 0, 0, -1, 0, 24.105)" gradientUnits="objectBoundingBox"><stop offset="0" stop-color="#fff"/><stop offset="0.132" stop-color="#f7fdfd"/><stop offset="0.334" stop-color="#e2f7f7"/><stop offset="0.581" stop-color="#bfefef"/><stop offset="0.859" stop-color="#8fe3e3"/><stop offset="1" stop-color="#75dddd"/></radialGradient><clipPath id="d"><rect width="21.409" height="21.408" rx="9.468" transform="translate(221.091 56.341)" fill="none"/></clipPath><radialGradient id="e" xlink:href="#c"/></defs><line y1="40.231" x2="5.857" transform="translate(376.322 67.947)" fill="none" stroke="#6d6e71" stroke-miterlimit="10" stroke-width="3.276"/><path d="M18.7,109.112,78.1,88.723l223.868,42.988,48.138,35.65,25.531-60.943,69.791,37.87" fill="none" stroke="#6d6e71" stroke-miterlimit="10" stroke-width="3.276"/><g clip-path="url(#a)"><path d="M18.7,109.112a8.837,8.837,0,1,1-11.465-4.975A8.837,8.837,0,0,1,18.7,109.112Z" fill="none" stroke="#f16036" stroke-miterlimit="10" stroke-width="3.276"/><line x1="42.215" y1="45.813" transform="translate(35.882 42.91)" fill="none" stroke="#6d6e71" stroke-miterlimit="10" stroke-width="3.276"/><path d="M38.967,37.107a8.837,8.837,0,1,1-8.4-9.256A8.837,8.837,0,0,1,38.967,37.107Z" fill="none" stroke="#f16036" stroke-miterlimit="10" stroke-width="3.276"/><line y1="35.224" x2="73.343" transform="translate(375.634 71.193)" fill="none" stroke="#6d6e71" stroke-miterlimit="10" stroke-width="3.276"/><path d="M385.315,106.888a8.837,8.837,0,1,1-8.4-9.256,8.837,8.837,0,0,1,8.4,9.256" fill="#f16036"/><path d="M460.863,148.28a8.837,8.837,0,1,1-8.4-9.256A8.837,8.837,0,0,1,460.863,148.28Z" fill="none" stroke="#f16036" stroke-miterlimit="10" stroke-width="3.276"/><path d="M464.719,68.922a8.837,8.837,0,1,1-8.4-9.256A8.837,8.837,0,0,1,464.719,68.922Z" fill="none" stroke="#f16036" stroke-miterlimit="10" stroke-width="3.276"/><path d="M358.332,167.173a8.837,8.837,0,1,1-8.4-9.256,8.837,8.837,0,0,1,8.4,9.256" fill="#f16036"/><path d="M388.663,52.6a8.837,8.837,0,1,1-12.322,2.093A8.839,8.839,0,0,1,388.663,52.6Z" fill="none" stroke="#f16036" stroke-miterlimit="10" stroke-width="3.276"/><path d="M86.387,89.126a8.837,8.837,0,1,1-8.4-9.256,8.837,8.837,0,0,1,8.4,9.256" fill="#f16036"/><path d="M311.023,132.151a8.837,8.837,0,1,1-8.4-9.256,8.837,8.837,0,0,1,8.4,9.256" fill="#f16036"/><path d="M235.136,30.905A30.906,30.906,0,1,1,204.231,0a30.9,30.9,0,0,1,30.9,30.905" fill="#305082"/><path d="M104.981,168.817a6.905,6.905,0,0,0-8.608,4.62L68.621,265.483a23.852,23.852,0,0,0-22.778,16.956,6.908,6.908,0,1,0,13.228,3.988A10.007,10.007,0,1,1,78.232,292.2a6.908,6.908,0,1,0,13.228,3.988,23.856,23.856,0,0,0-9.611-26.722L109.6,177.425a6.908,6.908,0,0,0-4.62-8.608" fill="#9e9e9e"/><path d="M362.62,282.438a23.851,23.851,0,0,0-22.778-16.955L312.09,173.436a6.908,6.908,0,1,0-13.228,3.988l27.751,92.046A23.858,23.858,0,0,0,317,296.192a6.908,6.908,0,1,0,13.228-3.988,10.007,10.007,0,1,1,19.161-5.778,6.908,6.908,0,1,0,13.228-3.988" fill="#9e9e9e"/><path d="M138.853,168.882A23.179,23.179,0,1,1,115.674,145.7a23.18,23.18,0,0,1,23.179,23.179" fill="#9e9e9e"/><path d="M315.967,168.882A23.179,23.179,0,1,1,292.788,145.7a23.18,23.18,0,0,1,23.179,23.179" fill="#9e9e9e"/><path d="M134.786,91.579H130.74a12.1,12.1,0,0,1-12.1-12.1V54.613a12.1,12.1,0,0,1,12.1-12.1h4.046a12.1,12.1,0,0,1,12.1,12.1V79.477a12.1,12.1,0,0,1-12.1,12.1" fill="#afafaf"/><path d="M277.723,91.579h-4.047a12.1,12.1,0,0,1-12.1-12.1V54.613a12.1,12.1,0,0,1,12.1-12.1h4.047a12.1,12.1,0,0,1,12.1,12.1V79.477a12.1,12.1,0,0,1-12.1,12.1" fill="#9e9e9e"/><path d="M233.007,115.311H175.456a42.693,42.693,0,0,1-42.693-42.693V61.472a42.693,42.693,0,0,1,42.693-42.693h57.551A42.693,42.693,0,0,1,275.7,61.472V72.618a42.693,42.693,0,0,1-42.693,42.693" fill="#bfbfbf"/><path d="M239.933,91.461h-71.4a21.6,21.6,0,0,1-21.6-21.6V64.226a21.6,21.6,0,0,1,21.6-21.6h71.4a21.6,21.6,0,0,1,21.6,21.6v5.638a21.6,21.6,0,0,1-21.6,21.6" fill="#0096aa"/><rect width="114.598" height="48.832" rx="21.597" transform="translate(146.932 42.629)" fill="none" stroke="#305082" stroke-miterlimit="10" stroke-width="2.42"/><rect width="48.289" height="23.038" transform="translate(180.087 115.311)" fill="#9e9e9e"/><path d="M275.286,247.779H133.177a27.633,27.633,0,0,1-26.792-34.4l16.312-64.6a13.816,13.816,0,0,1,13.4-10.433H272.37a13.815,13.815,0,0,1,13.4,10.433l16.312,64.6a27.632,27.632,0,0,1-26.791,34.4" fill="#0096aa"/><path d="M241.17,275.17H167.293a24.228,24.228,0,0,1-24.228-24.228v-3.163H265.4v3.163A24.228,24.228,0,0,1,241.17,275.17" fill="#305082"/><path d="M208.246,314.364h-8.029a30.754,30.754,0,0,1-30.754-30.754v-8.44H239v8.44a30.754,30.754,0,0,1-30.754,30.754" fill="#0096aa"/></g><g clip-path="url(#b)"><rect width="21.408" height="21.408" transform="translate(165.963 56.341)" fill="url(#c)"/></g><g clip-path="url(#d)"><rect width="21.409" height="21.408" transform="translate(221.091 56.341)" fill="url(#e)"/></g><g clip-path="url(#a)"><path d="M204.132,179.018a13.043,13.043,0,1,1-13.044,13.044A13.044,13.044,0,0,1,204.132,179.018Z" fill="none" stroke="#fff" stroke-linecap="square" stroke-miterlimit="10" stroke-width="3.223"/><path d="M233.965,192.061a31.148,31.148,0,0,0-.713-6.4l10.122-7.648-7.447-12.91L224.2,170.032a29.821,29.821,0,0,0-11.148-6.4l-1.583-12.576H196.574l-1.583,12.576a29.82,29.82,0,0,0-11.037,6.4L172.226,165.1l-7.447,12.91,10.123,7.648a29.385,29.385,0,0,0,0,12.776l-10.123,7.67,7.447,12.91,11.728-4.95a29.573,29.573,0,0,0,11.037,6.421l1.583,12.576h14.894l1.583-12.576a29.578,29.578,0,0,0,11.148-6.421l11.728,4.95,7.447-12.91-10.122-7.67A30.665,30.665,0,0,0,233.965,192.061Z" fill="none" stroke="#fff" stroke-linecap="square" stroke-miterlimit="10" stroke-width="3.223"/></g></svg>